<svg width="16" height="16" viewBox="0 0 16 16" fill="none" xmlns="http://www.w3.org/2000/svg">
<g id="icon / inst" clip-path="url(#clip0_7_162)">
<path id="Vector" fill-rule="evenodd" clip-rule="evenodd" d="M7.99984 11.3333C9.84078 11.3333 11.3332 9.8409 11.3332 7.99996C11.3332 6.15901 9.84078 4.66663 7.99984 4.66663C6.15889 4.66663 4.6665 6.15901 4.6665 7.99996C4.6665 9.8409 6.15889 11.3333 7.99984 11.3333ZM7.99984 10.2222C9.22711 10.2222 10.2221 9.22724 10.2221 7.99996C10.2221 6.77266 9.22711 5.77774 7.99984 5.77774C6.77254 5.77774 5.77761 6.77266 5.77761 7.99996C5.77761 9.22724 6.77254 10.2222 7.99984 10.2222Z" fill="white"/>
<path id="Vector_2" d="M12.0002 3.33337C11.632 3.33337 11.3335 3.63185 11.3335 4.00004C11.3335 4.36823 11.632 4.66671 12.0002 4.66671C12.3684 4.66671 12.6668 4.36823 12.6668 4.00004C12.6668 3.63185 12.3684 3.33337 12.0002 3.33337Z" fill="white"/>
<path id="Vector_3" fill-rule="evenodd" clip-rule="evenodd" d="M1.10248 2.85067C0.666504 3.70631 0.666504 4.82642 0.666504 7.06663V8.93329C0.666504 11.1735 0.666504 12.2936 1.10248 13.1492C1.48597 13.9019 2.09789 14.5138 2.85054 14.8973C3.70619 15.3333 4.8263 15.3333 7.0665 15.3333H8.93317C11.1734 15.3333 12.2935 15.3333 13.1491 14.8973C13.9018 14.5138 14.5137 13.9019 14.8972 13.1492C15.3332 12.2936 15.3332 11.1735 15.3332 8.93329V7.06663C15.3332 4.82642 15.3332 3.70631 14.8972 2.85067C14.5137 2.09801 13.9018 1.48609 13.1491 1.1026C12.2935 0.666626 11.1734 0.666626 8.93317 0.666626H7.0665C4.8263 0.666626 3.70619 0.666626 2.85054 1.1026C2.09789 1.48609 1.48597 2.09801 1.10248 2.85067ZM8.93317 1.99996H7.0665C5.9244 1.99996 5.148 2.001 4.54789 2.05003C3.96333 2.09779 3.6644 2.18435 3.45586 2.29061C2.9541 2.54627 2.54615 2.95422 2.29048 3.45599C2.18423 3.66452 2.09766 3.96345 2.0499 4.54801C2.00088 5.14813 1.99984 5.92452 1.99984 7.06663V8.93329C1.99984 10.0754 2.00088 10.8518 2.0499 11.4519C2.09766 12.0365 2.18423 12.3354 2.29048 12.544C2.54615 13.0457 2.9541 13.4536 3.45586 13.7093C3.6644 13.8156 3.96333 13.9022 4.54789 13.9499C5.148 13.9989 5.9244 14 7.0665 14H8.93317C10.0753 14 10.8516 13.9989 11.4518 13.9499C12.0364 13.9022 12.3353 13.8156 12.5438 13.7093C13.0456 13.4536 13.4535 13.0457 13.7092 12.544C13.8154 12.3354 13.902 12.0365 13.9498 11.4519C13.9988 10.8518 13.9998 10.0754 13.9998 8.93329V7.06663C13.9998 5.92452 13.9988 5.14813 13.9498 4.54801C13.902 3.96345 13.8154 3.66452 13.7092 3.45599C13.4535 2.95422 13.0456 2.54627 12.5438 2.29061C12.3353 2.18435 12.0364 2.09779 11.4518 2.05003C10.8516 2.001 10.0753 1.99996 8.93317 1.99996Z" fill="white"/>
</g>
<defs>
<clipPath id="clip0_7_162">
<rect width="16" height="16" fill="white"/>
</clipPath>
</defs>
</svg>
