<svg width="16" height="16" viewBox="0 0 16 16" fill="none" xmlns="http://www.w3.org/2000/svg">
<g id="icon / pinterest">
<path id="Vector" d="M6.69028 10.3671C6.30502 12.3863 5.83485 14.3221 4.4416 15.3333C4.01119 12.2814 5.07287 9.98934 5.56594 7.55591C4.72518 6.14113 5.66692 3.29373 7.43975 3.99518C9.62112 4.85813 5.5509 9.25563 8.28301 9.80493C11.1361 10.3782 12.301 4.85454 10.5321 3.05843C7.97578 0.464585 3.09126 2.99937 3.69177 6.71299C3.83786 7.62072 4.77569 7.89608 4.06667 9.14932C2.43063 8.78624 1.94259 7.49609 2.00524 5.7759C2.10656 2.96001 4.53506 0.988796 6.97136 0.715956C10.0522 0.371131 12.9437 1.84675 13.3429 4.74502C13.7927 8.0164 11.9525 11.5592 8.65791 11.3042C7.76485 11.2348 7.38995 10.7922 6.69028 10.3671Z" fill="white"/>
</g>
</svg>
